<?xml version="1.0" ?><svg viewBox="0 0 24 24" xmlns="http://www.w3.org/2000/svg"><defs><style>.cls-1{fill:#ce5959;}.cls-2{fill:#f19b5f;}.cls-3{fill:#0e7cc9;}.cls-4{fill:#ffce69;}.cls-5{fill:#47a6e3;}.cls-6{fill:#6c2e7c;}</style></defs><g id="Icons"><path class="cls-1" d="M12,1V12H1A10.994,10.994,0,0,1,12,1Z"/><path class="cls-2" d="M23,12a10.965,10.965,0,0,1-3.22,7.78L12,12V1A10.994,10.994,0,0,1,22.71,9.5,10.827,10.827,0,0,1,23,12Z"/><path class="cls-3" d="M19.78,19.78A11,11,0,0,1,1,12H12Z"/><path class="cls-4" d="M22.71,9.5a11.013,11.013,0,0,1-5.84,7.37L12,12V1A10.994,10.994,0,0,1,22.71,9.5Z"/><path class="cls-5" d="M16.87,16.87A11.019,11.019,0,0,1,2.2,12H12Z"/></g><g data-name="Layer 4" id="Layer_4"><path class="cls-6" d="M12,0A12,12,0,1,0,24,12,12.013,12.013,0,0,0,12,0Zm0,22A10,10,0,1,1,22,12,10.011,10.011,0,0,1,12,22Z"/><path class="cls-6" d="M13,11.586V5a1,1,0,0,0-2,0v6H5a1,1,0,0,0,0,2h6.586l4.657,4.657a1,1,0,0,0,1.414-1.414Z"/></g></svg>